<?xml version="1.0" encoding="UTF-8" standalone="no"?>
<svg
   xmlns:dc="http://purl.org/dc/elements/1.1/"
   xmlns:cc="http://creativecommons.org/ns#"
   xmlns:rdf="http://www.w3.org/1999/02/22-rdf-syntax-ns#"
   xmlns:svg="http://www.w3.org/2000/svg"
   xmlns="http://www.w3.org/2000/svg"
   viewBox="0 0 24.127665 39.32061"
   height="39.32061"
   width="24.127665"
   version="1.1"
   id="svg2">
  <metadata
     id="metadata8">
    <rdf:RDF>
      <cc:Work
         rdf:about="">
        <dc:format>image/svg+xml</dc:format>
        <dc:type
           rdf:resource="http://purl.org/dc/dcmitype/StillImage" />
        <dc:title></dc:title>
      </cc:Work>
    </rdf:RDF>
  </metadata>
  <defs
     id="defs6" />
  <path
     id="path3340"
     d="m 8.8183607,37.435788 c 1.1995433,-1.83169 0.133226,-1.26046 1.2739143,-0.915489 0.4628,0.139962 1.562014,1.335149 2.302097,0.941682 0.788462,-0.419188 1.3282,-0.862913 1.805271,-1.012152 1.302393,-0.407421 1.490378,0.693176 0.814844,1.507144 -0.622445,0.749999 -2.153472,1.363636 -3.402284,1.363636 -1.248811,0 -3.2339493,-1.212784 -2.7938423,-1.884821 z m -1.08265,-3.315802 c 0,-0.31009 -0.872363,-1.780515 0.12309,-1.923095 2.6652593,-0.38175 8.5977883,-2.009922 9.3291783,-1.278532 0,0 0.987937,2.050534 -0.383388,2.205932 -1.167309,0.132279 -2.492448,0.377498 -4.780075,0.683048 -2.8740223,0.383872 -4.2888033,0.989545 -4.2888053,0.312647 z m -0.08686,-3.808493 c 0,0 -1.313072,-2.306552 0.572033,-2.077747 1.023737,0.124256 5.7627063,-1.188315 7.3924033,-1.172972 1.314037,0.01237 1.715252,0.416364 1.505342,0.809131 -0.162364,0.303803 -0.360721,0.809512 -0.360721,0.809512 0,0 0.572857,0.120337 -1.676856,0.556799 -2.414144,0.468364 -8.0233313,1.808951 -7.4322013,1.075277 z M 2.8776637,21.30568 c -4.041107,-7.327061 -3.82743797,-13.1076315 0.65,-17.58507 4.960814,-4.9608134 12.2391863,-4.9608134 17.2000003,0 2.896333,2.8963325 3.4,4.092088 3.4,8.07193 0,3.957204 -2.291439,9.828569 -5.611434,14.378206 -0.140527,0.192574 -0.748617,0.04537 -1.351309,-0.327109 -0.725708,-0.448513 0.535351,-2.291718 2.54152,-5.798134 1.6661,-2.912039 2.421223,-6.404895 2.421223,-7.549567 0,-10.105915 -13.9909763,-13.8948162 -18.5749953,-5.0303007 -2.086146,4.0341597 -1.773717,6.5020357 1.561023,12.3305537 2.646097,4.624895 2.971649,6.556308 1.097305,6.510013 -0.320833,-0.0079 -1.820833,-2.258159 -3.333333,-5.000522 z m 2.25,-10.830082 c 0,-2.230215 3.023355,-5.154988 5.3287403,-5.154988 1.218641,0 1.302927,0.485052 1.166373,1.053669 -0.121117,0.5043399 -0.323326,0.5532336 -1.443962,0.9089094 -0.5522913,0.1752905 -1.4741983,0.653858 -1.9478803,1.1390474 -0.44562,0.4564463 -1.149515,0.9956305 -1.053828,1.9495262 0.114528,1.141723 -0.526079,1.109172 -1.005073,1.253074 -0.603221,0.181224 -1.04437,0.209822 -1.04437,-1.149238 z"
     style="fill:#4a4a4a" />
</svg>
