<?xml version="1.0" encoding="UTF-8" standalone="no"?>
<svg
   xmlns:dc="http://purl.org/dc/elements/1.1/"
   xmlns:cc="http://creativecommons.org/ns#"
   xmlns:rdf="http://www.w3.org/1999/02/22-rdf-syntax-ns#"
   xmlns:svg="http://www.w3.org/2000/svg"
   xmlns="http://www.w3.org/2000/svg"
   viewBox="0 0 32.924534 34"
   height="34"
   width="32.924534"
   version="1.1"
   id="svg2">
  <metadata
     id="metadata8">
    <rdf:RDF>
      <cc:Work
         rdf:about="">
        <dc:format>image/svg+xml</dc:format>
        <dc:type
           rdf:resource="http://purl.org/dc/dcmitype/StillImage" />
        <dc:title></dc:title>
      </cc:Work>
    </rdf:RDF>
  </metadata>
  <defs
     id="defs6" />
  <path
     id="path3357"
     d="m 0.1709817,29.75 c 0.30151,-2.3375 0.855402,-7.122361 1.23087,-10.633024 l 0.682669,-6.383024 5.162041,-2.9138036 C 10.370937,8.0565393 12.655305,7.3055153 13.033575,7.9175693 c 0.343735,0.556175 -1.641684,2.1598277 -4.4120413,3.5636747 -3.775263,1.913071 -5.039191,3.111843 -5.045705,4.785602 -0.0048,1.228235 -0.301668,4.673386 -0.65975,7.655892 l -0.651057,5.422738 3.555822,-2.712157 C 8.3793827,24.681826 9.2324783,23.369794 8.8625683,21.955254 8.1934297,19.396465 10.235254,17 13.08452,17 c 3.064124,0 4.864086,2.413229 4.092615,5.487014 -0.567892,2.262664 -1.98593,2.986355 -5.154838,2.630753 -0.584223,-0.06556 -2.3842227,1.292136 -3.9999993,3.0171 l -2.937777,3.136299 2.5,-0.551964 c 1.3749996,-0.30358 5.0481343,-1.063324 8.1625213,-1.68832 5.286582,-1.060913 5.767377,-1.398418 7.241903,-5.083619 C 23.857604,21.776268 25.02197,20 25.576423,20 c 0.554453,0 1.008097,0.215894 1.008097,0.479764 0,0.453002 -3.124353,8.729167 -3.501855,9.276138 C 22.89095,30.033682 1.7029457,34 0.4107627,34 c -0.43339,0 -0.541291,-1.9125 -0.239781,-4.25 z M 15.334812,21.250526 c 0.546761,-1.642126 -2.586478,-2.81434 -3.930377,-1.470441 -0.575108,0.575108 -0.727903,1.559776 -0.339546,2.188151 0.883552,1.429618 3.713319,0.953976 4.269923,-0.71771 z m 5.606707,-4.242107 C 18.075841,15.851975 15.58366,12.136499 15.588258,9.0274943 15.592758,5.9516312 19.062501,0 20.851125,0 c 0.712801,0 3.944272,2.6761948 7.181047,5.9470996 6.430284,6.4980884 6.470078,7.4927234 0.424841,10.6188374 -3.117087,1.611908 -4.426597,1.689007 -7.515494,0.442482 z m 8.618565,-3.627021 c 1.28924,-1.226673 0.871997,-2.002327 -3.304297,-6.1426762 L 21.475927,2.5 19.530223,4.860784 c -2.205392,2.6758724 -2.413912,4.3958423 -0.880331,7.261364 2.047223,3.825271 7.546225,4.459964 10.910192,1.25925 z"
     style="fill:#4d4d4d" />
</svg>
