<?xml version="1.0" encoding="UTF-8" standalone="no"?>
<svg
   xmlns:dc="http://purl.org/dc/elements/1.1/"
   xmlns:cc="http://creativecommons.org/ns#"
   xmlns:rdf="http://www.w3.org/1999/02/22-rdf-syntax-ns#"
   xmlns:svg="http://www.w3.org/2000/svg"
   xmlns="http://www.w3.org/2000/svg"
   viewBox="0 0 39.426514 39"
   height="39"
   width="39.426514"
   version="1.1"
   id="svg2">
  <metadata
     id="metadata8">
    <rdf:RDF>
      <cc:Work
         rdf:about="">
        <dc:format>image/svg+xml</dc:format>
        <dc:type
           rdf:resource="http://purl.org/dc/dcmitype/StillImage" />
        <dc:title></dc:title>
      </cc:Work>
    </rdf:RDF>
  </metadata>
  <defs
     id="defs6" />
  <path
     id="path3342"
     d="m 2.7038773,31.994923 3.112485,-7.005076 0.995063,0.995063 0.995063,0.995063 -1.673809,3.510013 c -1.912853,4.011295 -1.885804,4.029737 2.948077,2.010013 4.2777107,-1.787341 4.3457577,-1.794189 4.3457577,-0.437285 l 0,1.062715 -6.4780427,2.937285 c -3.562924,1.615507 -6.67582595,2.937285 -6.91756095,2.937285 -0.241734,0 0.96110096,-3.152284 2.67296695,-7.005076 z M 12.957684,26.031314 C 8.0477603,21.098537 4.2321433,16.884555 4.4785323,16.66691 c 0.24639,-0.217645 3.035482,-1.350421 6.1979827,-2.517279 l 5.749999,-2.121561 0,1.445823 0,1.445823 -3.999999,1.198429 c -2.2,0.659136 -4.0000007,1.498759 -4.0000007,1.865828 0,0.367069 1.12803,1.727127 2.5067347,3.022352 l 2.506732,2.354954 2.912006,-2.789879 2.912006,-2.789878 1.168167,0.721966 1.168167,0.721967 -3.094597,3.192813 -3.094596,3.192814 2.839169,2.720096 2.839169,2.720097 1.345125,-4.075768 c 0.739819,-2.241673 1.745592,-4.323271 2.235052,-4.625774 l 0.889927,-0.550005 0.517367,0.517367 0.517367,0.517367 -2.217889,6.082768 c -1.219838,3.345523 -2.279475,6.082769 -2.354747,6.082769 -0.07527,0 -4.154068,-4.035908 -9.06399,-8.968685 z m 14.46883,-6.818907 c 0,-0.433175 2.25,-3.003759 5,-5.712408 l 5.000001,-4.9248153 0,-3.2875919 0,-3.2875918 -3.787592,0 -3.787593,0 -4.918659,4.9937489 -4.918659,4.9937481 -1,-1 -1,-0.9999986 L 22.932671,4.9937489 27.85133,0 l 5.787593,0 5.787592,0 0,5.2875918 0,5.2875912 -4.784349,4.712408 -4.78435,4.712408 -1.215651,0 c -0.668608,0 -1.215651,-0.354416 -1.215651,-0.787592 z"
     style="fill:#4a4a4a" />
</svg>
