<?xml version="1.0" encoding="UTF-8" standalone="no"?>
<svg
   xmlns:dc="http://purl.org/dc/elements/1.1/"
   xmlns:cc="http://creativecommons.org/ns#"
   xmlns:rdf="http://www.w3.org/1999/02/22-rdf-syntax-ns#"
   xmlns:svg="http://www.w3.org/2000/svg"
   xmlns="http://www.w3.org/2000/svg"
   id="svg2"
   version="1.1"
   width="40.00206"
   height="39.041187"
   viewBox="0 0 40.00206 39.041187">
  <metadata
     id="metadata8">
    <rdf:RDF>
      <cc:Work
         rdf:about="">
        <dc:format>image/svg+xml</dc:format>
        <dc:type
           rdf:resource="http://purl.org/dc/dcmitype/StillImage" />
        <dc:title></dc:title>
      </cc:Work>
    </rdf:RDF>
  </metadata>
  <defs
     id="defs6" />
  <path
     id="path3345"
     d="M 9.23128,29.730176 0,20.460353 l 8.788144,-8.747427 8.788144,-8.7474269 3.23047,3.3329998 c 1.951877,2.0138259 2.943455,3.3380479 2.593067,3.7580391 -1.272912,1.525771 -1.710884,0.04421 -3.574505,-1.7345302 l -2.40227,-2.2928572 -7.210467,7.2589124 -7.210466,7.258913 7.972962,7.9262 7.972962,7.926201 2.351197,-2.208835 c 1.822123,-1.711795 2.452406,-2.329998 3.061929,-1.463811 0.135047,0.191914 0,0 0.325026,0.554996 0.349197,0.596267 -1.344038,1.768807 -2.357222,2.723661 -0.969086,0.913296 -1.60869,1.46071 -2.151031,1.918145 -0.703918,0.593716 -1.132751,0.897376 -1.22036,1.018041 -0.254524,0.350557 -0.598438,-0.273328 -1.512051,-1.103187 C 15.659708,36.21628 12.590123,33.103043 9.23128,29.730176 Z M 16.002061,29 c -2.649563,-2.649563 -2.642861,-8.108243 0.0129,-10.511679 4.34023,-3.927854 11.987095,-0.87275 11.987095,4.78913 0,0.940677 -0.332426,0.841729 -0.594317,0.853611 -0.381347,0.0173 -0.601009,-0.519778 -1.834173,-2.363352 -0.70197,-1.049441 -2.604228,-2.857941 -4.545535,-3.059232 -1.18402,-0.122769 -2.59168,0.21987 -3.430853,0.969726 -0.850861,0.760299 -0.880039,1.105072 -1.048644,1.623587 -0.25309,0.77833 -0.524122,1.425714 -0.510329,2.340366 0.0334,2.215123 1.491985,4.452292 3.479081,4.951021 1.366623,0.343 2.48477,1.024854 2.48477,1.51523 0,1.646704 -3.980162,0.91143 -5.999995,-1.108408 z m 13.813513,-1.932957 c -0.249122,-0.249122 -0.608765,-0.46217 -0.437333,-0.720092 0.362476,-0.545348 1.020309,-1.430243 1.919255,-2.318693 L 33.363341,21.986533 30.49561,18.993266 C 28.528902,16.940466 28.264423,16.826271 29.127879,16 c 0.596056,-0.570387 2.802999,1.360038 4.395553,3.022307 l 2.895554,3.022307 -3.009745,3.009744 c -0.761837,0.761837 -1.488852,1.4054 -2.003081,1.880736 -0.753496,0.696507 -0.551041,0.582635 -0.820386,0.601797 -0.275478,0.0196 -0.607566,-0.307213 -0.7702,-0.469848 z M 32.440257,13 c 0,-0.55 0.22643,-1 1.038751,-1 0.812321,0 2.214075,-1.125 3.11501,-2.5000002 1.517417,-2.3158712 1.517417,-2.6841284 0,-4.9999998 C 35.625221,3.0214284 34.007269,2 32.633996,2 c -2.399938,0 -5.631935,2.7710679 -5.631935,4.8287407 0,0.6441926 -0.573941,0.8820644 -1.123941,0.8820644 -1.647108,0 -1.01185,-2.2684578 1.196521,-5.0759464 C 28.577854,0.7238327 30.068843,0 32.502061,0 c 3.593604,0 7.5,3.6459699 7.5,7 0,2.5570748 -3.854288,7 -6.07258,7 -1.060081,0 -1.489224,-0.45 -1.489224,-1 z"
     style="fill:#000000" />
</svg>
